<mxfile host="app.diagrams.net" agent="Mozilla/5.0 (Macintosh; Intel Mac OS X 10.15; rv:134.0) Gecko/20100101 Firefox/134.0" version="26.0.8">
  <diagram name="Page-1" id="zf9pPjW4tSXsNRUqr2be">
    <mxGraphModel dx="1140" dy="662" grid="1" gridSize="10" guides="1" tooltips="1" connect="1" arrows="1" fold="1" page="1" pageScale="1" pageWidth="1169" pageHeight="827" math="0" shadow="0">
      <root>
        <mxCell id="0" />
        <mxCell id="1" parent="0" />
        <mxCell id="l54pLfl_Zj9ZTrnPYG_9-2" value="AWS Cloud" style="points=[[0,0],[0.25,0],[0.5,0],[0.75,0],[1,0],[1,0.25],[1,0.5],[1,0.75],[1,1],[0.75,1],[0.5,1],[0.25,1],[0,1],[0,0.75],[0,0.5],[0,0.25]];outlineConnect=0;gradientColor=none;html=1;whiteSpace=wrap;fontSize=12;fontStyle=0;container=1;pointerEvents=0;collapsible=0;recursiveResize=0;shape=mxgraph.aws4.group;grIcon=mxgraph.aws4.group_aws_cloud;strokeColor=#232F3E;fillColor=none;verticalAlign=top;align=left;spacingLeft=30;fontColor=#232F3E;dashed=0;" parent="1" vertex="1">
          <mxGeometry x="40" y="80" width="1080" height="680" as="geometry" />
        </mxCell>
        <mxCell id="l54pLfl_Zj9ZTrnPYG_9-3" value="Region" style="points=[[0,0],[0.25,0],[0.5,0],[0.75,0],[1,0],[1,0.25],[1,0.5],[1,0.75],[1,1],[0.75,1],[0.5,1],[0.25,1],[0,1],[0,0.75],[0,0.5],[0,0.25]];outlineConnect=0;gradientColor=none;html=1;whiteSpace=wrap;fontSize=12;fontStyle=0;container=1;pointerEvents=0;collapsible=0;recursiveResize=0;shape=mxgraph.aws4.group;grIcon=mxgraph.aws4.group_region;strokeColor=#00A4A6;fillColor=none;verticalAlign=top;align=left;spacingLeft=30;fontColor=#147EBA;dashed=1;" parent="l54pLfl_Zj9ZTrnPYG_9-2" vertex="1">
          <mxGeometry x="40" y="40" width="1000" height="360" as="geometry" />
        </mxCell>
        <mxCell id="l54pLfl_Zj9ZTrnPYG_9-4" value="ap-southeast-2a" style="fillColor=none;strokeColor=#147EBA;dashed=1;verticalAlign=top;fontStyle=0;fontColor=#147EBA;whiteSpace=wrap;html=1;" parent="l54pLfl_Zj9ZTrnPYG_9-3" vertex="1">
          <mxGeometry x="40" y="40" width="280" height="280" as="geometry" />
        </mxCell>
        <mxCell id="l54pLfl_Zj9ZTrnPYG_9-5" value="ap-southeast-2c" style="fillColor=none;strokeColor=#147EBA;dashed=1;verticalAlign=top;fontStyle=0;fontColor=#147EBA;whiteSpace=wrap;html=1;" parent="l54pLfl_Zj9ZTrnPYG_9-3" vertex="1">
          <mxGeometry x="680" y="40" width="280" height="280" as="geometry" />
        </mxCell>
        <mxCell id="l54pLfl_Zj9ZTrnPYG_9-6" value="ap-southeast-2b" style="fillColor=none;strokeColor=#147EBA;dashed=1;verticalAlign=top;fontStyle=0;fontColor=#147EBA;whiteSpace=wrap;html=1;" parent="l54pLfl_Zj9ZTrnPYG_9-3" vertex="1">
          <mxGeometry x="360" y="40" width="280" height="280" as="geometry" />
        </mxCell>
        <mxCell id="l54pLfl_Zj9ZTrnPYG_9-9" value="Competitors Auto Scaling Group" style="points=[[0,0],[0.25,0],[0.5,0],[0.75,0],[1,0],[1,0.25],[1,0.5],[1,0.75],[1,1],[0.75,1],[0.5,1],[0.25,1],[0,1],[0,0.75],[0,0.5],[0,0.25]];outlineConnect=0;gradientColor=none;html=1;whiteSpace=wrap;fontSize=12;fontStyle=0;container=1;pointerEvents=0;collapsible=0;recursiveResize=0;shape=mxgraph.aws4.groupCenter;grIcon=mxgraph.aws4.group_auto_scaling_group;grStroke=1;strokeColor=#D86613;fillColor=none;verticalAlign=top;align=center;fontColor=#D86613;dashed=1;spacingTop=25;" parent="l54pLfl_Zj9ZTrnPYG_9-3" vertex="1">
          <mxGeometry x="80" y="120" width="840" height="130" as="geometry" />
        </mxCell>
        <mxCell id="l54pLfl_Zj9ZTrnPYG_9-10" value="" style="sketch=0;outlineConnect=0;fontColor=#232F3E;gradientColor=none;fillColor=#ED7100;strokeColor=none;dashed=0;verticalLabelPosition=bottom;verticalAlign=top;align=center;html=1;fontSize=12;fontStyle=0;aspect=fixed;pointerEvents=1;shape=mxgraph.aws4.instance2;" parent="l54pLfl_Zj9ZTrnPYG_9-9" vertex="1">
          <mxGeometry x="76" y="56" width="48" height="48" as="geometry" />
        </mxCell>
        <mxCell id="l54pLfl_Zj9ZTrnPYG_9-11" value="" style="sketch=0;outlineConnect=0;fontColor=#232F3E;gradientColor=none;fillColor=#ED7100;strokeColor=none;dashed=0;verticalLabelPosition=bottom;verticalAlign=top;align=center;html=1;fontSize=12;fontStyle=0;aspect=fixed;pointerEvents=1;shape=mxgraph.aws4.instance2;" parent="l54pLfl_Zj9ZTrnPYG_9-9" vertex="1">
          <mxGeometry x="396" y="56" width="48" height="48" as="geometry" />
        </mxCell>
        <mxCell id="l54pLfl_Zj9ZTrnPYG_9-12" value="" style="sketch=0;outlineConnect=0;fontColor=#232F3E;gradientColor=none;fillColor=#ED7100;strokeColor=none;dashed=0;verticalLabelPosition=bottom;verticalAlign=top;align=center;html=1;fontSize=12;fontStyle=0;aspect=fixed;pointerEvents=1;shape=mxgraph.aws4.instance2;" parent="l54pLfl_Zj9ZTrnPYG_9-9" vertex="1">
          <mxGeometry x="720" y="56" width="48" height="48" as="geometry" />
        </mxCell>
        <mxCell id="l54pLfl_Zj9ZTrnPYG_9-17" value="SSM Agent" style="sketch=0;outlineConnect=0;fontColor=#232F3E;gradientColor=none;fillColor=#E7157B;strokeColor=none;dashed=0;verticalLabelPosition=bottom;verticalAlign=top;align=center;html=1;fontSize=12;fontStyle=0;aspect=fixed;pointerEvents=1;shape=mxgraph.aws4.automation;" parent="l54pLfl_Zj9ZTrnPYG_9-9" vertex="1">
          <mxGeometry x="460" y="61" width="38" height="38" as="geometry" />
        </mxCell>
        <mxCell id="l54pLfl_Zj9ZTrnPYG_9-18" value="SSM Agent" style="sketch=0;outlineConnect=0;fontColor=#232F3E;gradientColor=none;fillColor=#E7157B;strokeColor=none;dashed=0;verticalLabelPosition=bottom;verticalAlign=top;align=center;html=1;fontSize=12;fontStyle=0;aspect=fixed;pointerEvents=1;shape=mxgraph.aws4.automation;" parent="l54pLfl_Zj9ZTrnPYG_9-9" vertex="1">
          <mxGeometry x="780" y="61" width="38" height="38" as="geometry" />
        </mxCell>
        <mxCell id="l54pLfl_Zj9ZTrnPYG_9-16" value="SSM Agent" style="sketch=0;outlineConnect=0;fontColor=#232F3E;gradientColor=none;fillColor=#E7157B;strokeColor=none;dashed=0;verticalLabelPosition=bottom;verticalAlign=top;align=center;html=1;fontSize=12;fontStyle=0;aspect=fixed;pointerEvents=1;shape=mxgraph.aws4.automation;" parent="l54pLfl_Zj9ZTrnPYG_9-3" vertex="1">
          <mxGeometry x="230" y="180" width="38" height="38" as="geometry" />
        </mxCell>
        <mxCell id="V5IVj306KitK6xteVGY6-11" value="The SSM Agent checks in with state manager " style="text;html=1;align=center;verticalAlign=middle;whiteSpace=wrap;rounded=0;" vertex="1" parent="l54pLfl_Zj9ZTrnPYG_9-3">
          <mxGeometry x="150" y="264" width="150" height="30" as="geometry" />
        </mxCell>
        <mxCell id="l54pLfl_Zj9ZTrnPYG_9-14" value="Patch Manager" style="sketch=0;outlineConnect=0;fontColor=#232F3E;gradientColor=none;fillColor=#E7157B;strokeColor=none;dashed=0;verticalLabelPosition=bottom;verticalAlign=top;align=center;html=1;fontSize=12;fontStyle=0;aspect=fixed;pointerEvents=1;shape=mxgraph.aws4.patch_manager;" parent="l54pLfl_Zj9ZTrnPYG_9-2" vertex="1">
          <mxGeometry x="120" y="558" width="78" height="78" as="geometry" />
        </mxCell>
        <mxCell id="l54pLfl_Zj9ZTrnPYG_9-15" value="State Manager" style="sketch=0;outlineConnect=0;fontColor=#232F3E;gradientColor=none;fillColor=#E7157B;strokeColor=none;dashed=0;verticalLabelPosition=bottom;verticalAlign=top;align=center;html=1;fontSize=12;fontStyle=0;aspect=fixed;pointerEvents=1;shape=mxgraph.aws4.state_manager;" parent="l54pLfl_Zj9ZTrnPYG_9-2" vertex="1">
          <mxGeometry x="750" y="480" width="78" height="78" as="geometry" />
        </mxCell>
        <mxCell id="V5IVj306KitK6xteVGY6-2" value="" style="edgeStyle=orthogonalEdgeStyle;html=1;endArrow=none;elbow=vertical;startArrow=block;startFill=1;strokeColor=#545B64;rounded=0;" edge="1" parent="l54pLfl_Zj9ZTrnPYG_9-2" source="l54pLfl_Zj9ZTrnPYG_9-15" target="l54pLfl_Zj9ZTrnPYG_9-17">
          <mxGeometry width="100" relative="1" as="geometry">
            <mxPoint x="368" y="529" as="sourcePoint" />
            <mxPoint x="609" y="269" as="targetPoint" />
          </mxGeometry>
        </mxCell>
        <mxCell id="V5IVj306KitK6xteVGY6-3" value="" style="edgeStyle=orthogonalEdgeStyle;html=1;endArrow=block;elbow=vertical;startArrow=none;endFill=1;strokeColor=#545B64;rounded=0;" edge="1" parent="l54pLfl_Zj9ZTrnPYG_9-2" source="l54pLfl_Zj9ZTrnPYG_9-16" target="l54pLfl_Zj9ZTrnPYG_9-15">
          <mxGeometry width="100" relative="1" as="geometry">
            <mxPoint x="230" y="239" as="sourcePoint" />
            <mxPoint x="672.0008885850989" y="519" as="targetPoint" />
            <Array as="points">
              <mxPoint x="382" y="239" />
              <mxPoint x="382" y="519" />
            </Array>
          </mxGeometry>
        </mxCell>
        <mxCell id="V5IVj306KitK6xteVGY6-4" value="" style="edgeStyle=orthogonalEdgeStyle;html=1;endArrow=none;elbow=vertical;startArrow=block;startFill=1;strokeColor=#545B64;rounded=0;" edge="1" parent="l54pLfl_Zj9ZTrnPYG_9-2" source="l54pLfl_Zj9ZTrnPYG_9-15" target="l54pLfl_Zj9ZTrnPYG_9-18">
          <mxGeometry width="100" relative="1" as="geometry">
            <mxPoint x="378" y="539" as="sourcePoint" />
            <mxPoint x="619" y="279" as="targetPoint" />
          </mxGeometry>
        </mxCell>
        <mxCell id="V5IVj306KitK6xteVGY6-5" value="State Manager Association " style="sketch=0;outlineConnect=0;fontColor=#232F3E;gradientColor=none;fillColor=#E7157B;strokeColor=none;dashed=0;verticalLabelPosition=bottom;verticalAlign=top;align=center;html=1;fontSize=12;fontStyle=0;aspect=fixed;pointerEvents=1;shape=mxgraph.aws4.checklist;" vertex="1" parent="l54pLfl_Zj9ZTrnPYG_9-2">
          <mxGeometry x="670" y="558" width="66" height="78" as="geometry" />
        </mxCell>
        <mxCell id="V5IVj306KitK6xteVGY6-10" value="" style="edgeStyle=orthogonalEdgeStyle;html=1;endArrow=none;elbow=vertical;startArrow=block;startFill=1;strokeColor=#545B64;rounded=0;" edge="1" parent="l54pLfl_Zj9ZTrnPYG_9-2" source="l54pLfl_Zj9ZTrnPYG_9-14" target="l54pLfl_Zj9ZTrnPYG_9-15">
          <mxGeometry width="100" relative="1" as="geometry">
            <mxPoint x="520" y="400" as="sourcePoint" />
            <mxPoint x="620" y="400" as="targetPoint" />
            <Array as="points">
              <mxPoint x="474" y="597" />
              <mxPoint x="474" y="540" />
            </Array>
          </mxGeometry>
        </mxCell>
        <mxCell id="V5IVj306KitK6xteVGY6-12" value="State manager checks that the machine has the required state. &lt;br&gt;if it doesn&#39;t it tells the agent to run an automation to make the required state apply " style="text;html=1;align=center;verticalAlign=middle;whiteSpace=wrap;rounded=0;" vertex="1" parent="l54pLfl_Zj9ZTrnPYG_9-2">
          <mxGeometry x="860" y="540" width="150" height="120" as="geometry" />
        </mxCell>
        <mxCell id="V5IVj306KitK6xteVGY6-13" value="We can use the association reports to keep track of the state of the machines" style="text;html=1;align=center;verticalAlign=middle;whiteSpace=wrap;rounded=0;" vertex="1" parent="l54pLfl_Zj9ZTrnPYG_9-2">
          <mxGeometry x="510" y="540" width="150" height="120" as="geometry" />
        </mxCell>
      </root>
    </mxGraphModel>
  </diagram>
</mxfile>
